<?xml version="1.0" encoding="UTF-8"?>
<svg id="Layer_2" data-name="Layer 2" xmlns="http://www.w3.org/2000/svg" viewBox="0 0 204.16 110.7">
  <defs>
    <style>
      .cls-1 {
        fill: #6f6f6f;
      }

      .cls-2 {
        fill: #bc8261;
      }

      .cls-3 {
        fill: #b97c5b;
      }

      .cls-4 {
        fill: #191716;
      }

      .cls-5 {
        fill: #8fdafe;
      }

      .cls-6 {
        fill: #b87a57;
      }

      .cls-7 {
        fill: #090807;
      }

      .cls-8 {
        fill: #b97a58;
      }

      .cls-9 {
        fill: #bb7f65;
      }

      .cls-10 {
        fill: #feb566;
      }

      .cls-11 {
        fill: #870015;
      }

      .cls-12 {
        fill: #ba7d5b;
      }

      .cls-13 {
        fill: #080808;
      }

      .cls-14 {
        fill: #020202;
      }

      .cls-15 {
        fill: #bb7f5d;
      }

      .cls-16 {
        fill: #be8565;
      }

      .cls-17 {
        fill: #0066b5;
      }

      .cls-18 {
        fill: #b77756;
      }

      .cls-19 {
        fill: #bc805f;
      }

      .cls-20 {
        fill: #c09780;
      }

      .cls-21 {
        fill: #404040;
      }

      .cls-22 {
        fill: #b97c5a;
      }

      .cls-23 {
        fill: #030101;
      }

      .cls-24 {
        fill: #00003a;
      }

      .cls-25 {
        fill: #b87957;
      }

      .cls-26 {
        fill: #b97b59;
      }

      .cls-27 {
        fill: #b98366;
      }

      .cls-28 {
        fill: #600;
      }

      .cls-29 {
        fill: #fefefe;
      }

      .cls-30 {
        fill: #fdfdfd;
      }

      .cls-31 {
        fill: #fefeb5;
      }
    </style>
  </defs>
  <g id="Layer_1-2" data-name="Layer 1">
    <g>
      <g>
        <path class="cls-11" d="M178.56,40.78c.66-.23.41,2.8.44,3.17.38,4.24,1.33,8.7,1.54,12.9.58,11.62-1.14,24.3-.24,35.9.03.41.11.79.25,1.18.3-.25.59.02.75.02h13.24c-.01-1.79-.53-3.59-.65-5.36-1.16-17.06-.05-34.32-.42-51.43.16-.51-.45-.97-.46-1.3-.01-.82,1.85-1.28,2.47-1.63,2.07-1.17,4.12-2.6,6.36-3.76.29-.15,1.74-1.58,1.89-.52.52,3.47-.61,8.46-.87,12.04-1.1,14.93-1.03,29.94-2.19,44.85-.21,2.73-.4,5.47-.66,8.2-2.03.34-4.07-.35-6-.43-2.72-.12-5.49.09-8.21,0-.03,0-.25-.22-.53-.23-1.79-.06-3.59.06-5.38,0-.22-1.49-.26-2.98-.23-4.49.06-3.69.46-7.38.01-11.04.13-2.94-.14-5.93-.1-8.86.06-4.3.54-8.6.32-12.92-.11-2.16-.71-4.48-.88-6.56-.11-1.3.26-2.83-.22-4.05-.02-.73-.2-1.48-.22-1.97v-3.72Z"/>
        <path class="cls-15" d="M179.66,78.85c-1.34-10.83-.62-21.43-.88-32.38.48,1.22.11,2.74.22,4.05.18,2.07.77,4.39.88,6.56.22,4.32-.26,8.62-.32,12.92-.04,2.93.23,5.92.1,8.86Z"/>
      </g>
      <path class="cls-2" d="M123.65,109.7l20.13-.22c-.16.64.32.97-.76,1.1-3.63.45-7.73-.53-11.38-.68-2.7-.11-5.34.08-7.99-.21Z"/>
      <g>
        <path class="cls-12" d="M.69,42.53c.33-1.38.06-2.92.24-4.25s1.38-3.58,1.68-5.11c.45-2.32.15-4.81.93-7.06-.12,3.99.27,7.36-.89,11.26-.5,1.67-1.43,3.38-1.96,5.15Z"/>
        <g>
          <path class="cls-6" d="M203.29,8.18c.42,7.03.25,13.93.88,21v5.69c-.36,3.17-.74,6.36-.88,9.63-.5,1.17-.09,2.68-.22,3.94-.08.71-.19,1.38-.22,2.19l-.44,15.97c-.11.95-.19,1.82-.22,2.84l-.22,8.31c-.23,1.97-.52,4.07-.66,6.13-.45.91-.16,2.17-.21,3.18-.01.29-.23.57-.23.65v3.28c0,.08-.21.36-.23.65-.05.91.05,1.84,0,2.74-.06.25-.41.63-.22,1.09-3.5-.13-7-.14-10.5-.22-1.28-.03-3.13.28-4.16-.66,2.73.08,5.49-.13,8.21,0,1.93.09,3.96.77,6,.43.27-2.72.45-5.47.66-8.2,1.16-14.91,1.09-29.92,2.19-44.85.26-3.58,1.4-8.57.87-12.04-.16-1.06-1.61.37-1.89.52-2.25,1.15-4.29,2.59-6.36,3.76-.62.35-2.48.82-2.47,1.63,0,.33.61.79.46,1.3.38,17.11-.73,34.37.42,51.43.12,1.77.64,3.57.65,5.36h-13.24c-.16,0-.45-.26-.75-.02-.14-.38-.21-.76-.25-1.18-.9-11.6.82-24.28.24-35.9-.21-4.2-1.16-8.67-1.54-12.9-.03-.37.22-3.4-.44-3.17,8.36-2.43,15.51-7.07,23-11.24.32-.18,1.85-.72,1.91-.82l-.63-6.63-.21-14.56c-.86-.3-1.19.51-1.48.64-9.59,4.42-19.67,8.22-29.56,12.18-3.01,1.2-5.77,2.57-8.88,3.59-29.03-.09-58.09,0-87.08.22-20.62.15-41.28.62-61.91.21-2.81-.06-5.63.15-8.43-.1.92-.47,1.78-1.22,2.65-1.74.41-.25.82-.5,1.22-.73,6.39-3.7,13.87-5.38,20.96-7.73,6.28-2.08,13.11-4.09,19.27-6.32,4.89-1.77,9.98-4.43,14.5-6.33,3.9-1.64,7.85-.45,11.96-.23,14.93.8,29.94.93,44.87,1.74,16.11.87,32.24,1.41,48.36,1.96,9.24.32,18.53.38,27.77.67,1.62.05,4.27-.28,5.7,0,.74.14.72,1.94.77,2.63Z"/>
          <path class="cls-19" d="M156.69,3.59l-21.78-.43c-4.57-.6-9.16-.82-13.78-.88-.37,0-.97.14-1.2-.22,12.01.26,24.95.15,36.76,1.53Z"/>
          <path class="cls-3" d="M56.7,3.37c.22-.01.44,0,.66,0-4.17,1.78-7.73,3.61-12.03,4.93-1.06.33-2.17.67-3.28.76,3.35-1.39,11.48-5.52,14.66-5.69Z"/>
          <path class="cls-9" d="M59.98,2.27c-.66.6-1.82.75-2.63,1.09-.22,0-.44-.01-.66,0,.95-.74,2.22-.77,3.28-1.09Z"/>
        </g>
      </g>
      <g>
        <path class="cls-11" d="M119.93,2.06c.23.36.83.22,1.2.22,4.61.06,9.21.28,13.78.88l21.78.43c5.55.65,11.11.47,16.75.65,8.37.26,16.83.8,25.17.9.4,0,.27-.41.46-.45,1.53-.37,3.17.46,4.67.43-.02.77.02,1.54,0,2.31-.01.42.22.88-.44.76-.04-.69-.02-2.49-.77-2.63-1.43-.27-4.08.06-5.7,0-9.24-.29-18.53-.36-27.77-.67-16.12-.55-32.25-1.09-48.36-1.96-14.93-.81-29.93-.94-44.87-1.74-4.11-.22-8.06-1.41-11.96.23-4.52,1.9-9.6,4.56-14.5,6.33-6.16,2.23-12.99,4.24-19.27,6.32-7.09,2.35-14.57,4.03-20.96,7.73-.4.23-.81.49-1.22.73-.86.52-1.73,1.26-2.65,1.74,2.8.25,5.62.04,8.43.1,20.63.41,41.29-.06,61.91-.21,29-.21,58.06-.31,87.08-.22,3.11-1.02,5.87-2.39,8.88-3.59,9.9-3.96,19.97-7.76,29.56-12.18.29-.14.62-.95,1.48-.64l.21,14.56.63,6.63c-.06.1-1.59.65-1.91.82-7.48,4.18-14.64,8.82-23,11.24l-16.19,5.03.22-21.22L3.97,25.25c0,.48.21.92.23,1.41.13,3.76.16,7.72-.95,11.32-.32,1.04-2.94,6.57-2.34,7.18l34.33,1.89c-.39,3.62-.65,7.27-1.09,10.89-1.07,8.84-2.12,17.22-1.52,26.28.27,4.07,1.24,7.76.88,12.02-.31,3.69-2.16,7.28-2.18,11.05,2.5.11,5.06-.15,7.56,0,4.98.28,9.96.94,14.98,1.1,1.63.43,3.54.17,5.25.22,3.32.09,7.85.77,10.94-.55.33-.14.72-.32.83-.7.29-.98.1-6.22.05-7.62-.57-16.03-8.59-31.76-4.16-47.64.05-.18.39-.15.43-.31.13-.56-.29-1.68-.16-2.14.02-.06.68-.66.69-1.01.19-.18.43-.18.67-.21,4.77-.54,9.88.37,14.66.46,8.24.15,16.51-.02,24.74-.14l.44.35c-.22,1.84.03,3.73-.12,5.57-.26,3.29-1.14,7.08-1.55,10.05-1.22,9-1.3,18.71-1.5,27.81-.1,4.63-.71,10.56-.24,15.1.03.28.38,1.41.45,1.41h37.96c.74,0,.32-1.75.32-2.07.04-7.57-.57-15.38-.86-22.99-.39-10.4-1.39-23.67-.2-33.88.05-.46.76-2.42.63-2.54-.04-.04-1.09.05-1.09-.33,0-.32.74-.32.97-.34,5.67-.42,12.31-.84,17.96-.65.42.01.88-.22.76.44-.67.11-1.67.14-2.41.22l-4.82.11c.55.1.61,1.37.66,1.97.45,5.92.29,12.19.66,18.15.66,10.5,2.24,20.78,2.63,31.28.05,1.27-.22,2.65.21,3.84l-11.28,3.05c-.87.83-3.34,1.35-2.94,2.86-.42.45-.51.73-.66,1.31l-20.13.22s-.31-.33-.52-.23l-18.07-.1c-.12-.57-.76-.66-.88-.76l.22-17.72c.84-3.78.37-10.54.66-14.77.52-7.69,2.46-16.23,2.4-23.74l.22-3.06c-.89.11-3.28-.42-3.5.77-.11,2.58-.05,5.31-.22,7.87-.34,5.03-1.11,10.28-1.32,15.31-.16,3.71.14,7.46.02,11.18-.05,1.63-.4,3.4-.25,5.11l-3.04.46.11.44-17.51-.21c-.96-.21-1.99-.2-2.94-.45-.14-.03-.29-.17-.44-.22-.03-.1-.44-.4-.54-.66-.6-1.68.16-4.61.32-6.34.04-.46-.04-.95,0-1.42.1-1,.54-1.77.22-2.74.59-.4.41-1.15.44-1.75.36-.77.31-1.94.44-2.84.35-2.45.84-4.31.88-6.78.9-3.54.61-7.2.64-10.82-.56-1.24-.5-6.07-1.3-6.68-.52-.4-1.73-.16-2.41-.22-.19-.02-.54-.34-.87-.22-.39,7.73-.38,15.57.22,23.3.19,2.48.71,4.95.87,7.44.37,5.82.19,11.65.91,17.47.17,1.37,1.13,3.61.42,4.85-.1.17-1.81,1.8-2.05,1.99-1.07.8-2.72,1.1-3.21,2.48-1.2.59-2.77.87-3.1,2.37-1.21-.12-2.43.21-3.57.26-9.26.41-18.61-.97-27.8-1.54-2.52-.16-5.47.28-7.9,0-.31-.03-.31-.02-.52-.23.1-1.11.1-2.47.28-3.55.44-2.61,1.7-5.38,1.92-8.15.32-4.01-.64-7.54-.89-11.38-.41-6.21-.15-14.47.45-20.68.42-4.42,1.35-9.01,1.94-13.49.06-.43.37-3.02.25-3.14-4.19-.11-8.41.15-12.59,0-3.2-.11-6.49-.64-9.64-.86-3.84-.27-7.73-.24-11.56-.7-.19-.02-.74-.11-.8-.34-.11-.5.48-2.07.67-2.7.53-1.77,1.46-3.49,1.96-5.15,1.16-3.89.77-7.27.89-11.26.02-.57-.06-1.15.04-1.72,3.68-1.79,6.88-4.42,10.81-5.93,9.04-3.47,18.59-5.66,27.66-9.42,1.12-.09,2.22-.44,3.28-.76,4.3-1.32,7.86-3.14,12.03-4.93.81-.34,1.97-.5,2.63-1.09,1.83-.55,4.62-2.03,6.22-2.2,3.17-.33,8.43.52,11.82.68,13.98.66,27.9,1,41.91,1.3ZM70.48,49.1c-.86.12-2.57-.5-2.4.87l2.4-.87ZM94.77,49.53l-14.44-.22c-.24.24,1.23,5.69,1.31,6.68.86,10.15-2.53,19.72-3.03,29.55-.18,3.51-.32,3.76,3.37,4.03,4.09.31,8.36-.09,12.47.22.29.02.5.12.76.22l-.43-40.48Z"/>
        <path class="cls-12" d="M30.66,107.51c-.21-.21-.2-.22-.23-.52-.52-4.67,1.08-9.19,1.33-13.8.52-9.36-.74-18.5.24-27.99.05-.45.15-1.07.41-1.45-.59,6.21-.86,14.47-.45,20.68.25,3.83,1.21,7.36.89,11.38-.22,2.76-1.47,5.54-1.92,8.15-.18,1.08-.17,2.44-.28,3.55Z"/>
        <path class="cls-16" d="M104.17,108.61c-.47-.44-.6-2.01-.65-2.74-.31-4.44-.08-10.7.87-14.99l-.22,17.72Z"/>
        <path class="cls-30" d="M79.67,49.53c0,.46-.05.91.06,1.36.61,2.59.54,6.96.6,9.8-.66-.12-.42.33-.44.76-.06,1.48.4,3.39.24,4.62-.05.39-.4.29-.44.48-.5,2.34-.66,4.89-.89,7.27,0,.04-.2.24-.23.53-.11,1.18.18,2.43-.21,3.63-.07-.05-.39.14-.45-.13-.16-.7.12-1.97,0-2.82-.05-.39-.43-.84-.43-.89v-3.72c0-.63-.41-2.61-.44-3.83-.04-1.96.04-3.94,0-5.91-.02-.8-.2-1.5-.22-2.19.41-1.63.21-3.55.22-5.25,0-1.28-.17-2.73.22-3.94.68.06,1.88-.19,2.41.22Z"/>
        <path class="cls-23" d="M59.1,108.61c-1.71-.04-3.62.22-5.25-.22,1.71.06,3.62-.23,5.25.22Z"/>
        <path class="cls-17" d="M38.97,44.28c.51.01,1.02-.01,1.53,0v59.95c-.51-.01-1.03.01-1.53,0v-59.95Z"/>
        <path class="cls-31" d="M63.26,44.28v59.95c-.29.01-.58,0-.88,0v-59.82c.03-.24.62-.11.88-.13Z"/>
        <path class="cls-24" d="M16.88,26.34v17.94c-.28-.01-1.06.12-1.1-.13v-17.82c.37-.01.73.02,1.1,0Z"/>
        <path class="cls-5" d="M17.53,26.34v17.94c-.22,0-.44.01-.66,0v-17.94c.22-.01.44,0,.66,0Z"/>
        <g>
          <path class="cls-8" d="M77.26,49.31c-.39,1.2-.21,2.66-.22,3.94-.36.23-.22.83-.22,1.2-.02,1.34-.04,2.71,0,4.05.02.69.2,1.39.22,2.19-.36.23-.22.83-.22,1.2-.02,1.51-.16,3.28.22,4.71.03,1.21.44,3.2.44,3.83v3.72s.37.49.43.89c.12.84-.16,2.11,0,2.82.06.27.38.08.45.13.11.08.14.11.22.22-.58.02-.72-.22-.6.49.23,1.37-.01,2.62.38,3.89-.16,1.73-.91,4.66-.32,6.34.09.26.51.57.54.66.31,1.14.25,5.54.47,7.3.3,2.5,1.64,4.43-.46,6.6-1.43,1.48-3.29,2.3-5.04,3.16.49-1.39,2.14-1.68,3.21-2.48.25-.19,1.95-1.82,2.05-1.99.71-1.24-.25-3.48-.42-4.85-.72-5.82-.54-11.65-.91-17.47-.16-2.49-.68-4.96-.87-7.44-.6-7.73-.6-15.57-.22-23.3.33-.12.68.2.87.22Z"/>
          <path class="cls-12" d="M79.01,89.79c.95.24,1.98.24,2.94.45l17.51.21-.11-.44,3.04-.46c-.15-1.71.2-3.47.25-5.11.12-3.71-.17-7.47-.02-11.18.21-5.03.98-10.27,1.32-15.31.17-2.57.12-5.29.22-7.87.22-1.19,2.61-.65,3.5-.77l-.22,3.06c0-.95,0-1.9,0-2.85-1.11.21-2.43-.63-2.6.78-.62,5.05-.24,10.82-.9,15.95-1.06,7.8-.35,15.69-.98,23.52-.36.59-2.74.83-3.49.88-6.27.41-12.96-.33-19.28,0-.66.07-.71-.61-1.19-.89Z"/>
          <path class="cls-27" d="M80.33,60.69c.04,2.1.03,4.24,0,6.35-.04,2.47-.52,4.33-.88,6.78l-.44.22s-.18-.13-.22-.22c.23-2.39.39-4.93.89-7.27.04-.19.38-.09.44-.48.17-1.23-.3-3.14-.24-4.62.02-.42-.23-.88.44-.76Z"/>
          <path class="cls-20" d="M79.01,74.04c.13.75.04,1.85,0,2.63-.03.6.15,1.35-.44,1.75-.02-.07.03-.18,0-.22-.08-.11-.11-.14-.22-.22.39-1.2.1-2.44.21-3.63.03-.28.22-.49.23-.53.04.09.21.18.22.22Z"/>
          <path class="cls-7" d="M78.58,78.2s-.02.15,0,.22c.33.98-.11,1.74-.22,2.74-.05.47.04.95,0,1.42-.4-1.27-.16-2.52-.38-3.89-.12-.71.03-.47.6-.49Z"/>
          <path class="cls-6" d="M70.48,49.1l-2.4.87c-.17-1.37,1.54-.76,2.4-.87Z"/>
          <g>
            <path class="cls-6" d="M94.77,49.53l.43,40.48c-.26-.1-.46-.2-.76-.22-4.12-.3-8.38.09-12.47-.22-3.68-.28-3.54-.52-3.37-4.03.5-9.82,3.89-19.4,3.03-29.55-.08-.98-1.55-6.44-1.31-6.68l14.44.22Z"/>
            <path class="cls-22" d="M80.33,67.04c.03-2.1.04-4.24,0-6.35-.05-2.84.01-7.21-.6-9.8-.11-.46-.07-.9-.06-1.36.8.61.73,5.44,1.3,6.68-.03,3.62.26,7.29-.64,10.82Z"/>
            <path class="cls-18" d="M79.01,76.66c.04-.77.13-1.88,0-2.63l.44-.22c-.13.9-.08,2.07-.44,2.84Z"/>
          </g>
          <path class="cls-28" d="M64.35,44.28v59.82c-.03.24-.82.11-1.09.13v-59.95c.36-.02.73,0,1.09,0Z"/>
          <path class="cls-17" d="M113.58,44.28c.28.01,1.06-.11,1.1.13v59.82c-.28-.01-1.06.11-1.1-.13v-59.82Z"/>
          <path class="cls-21" d="M77.04,66.6c-.39-1.43-.24-3.2-.22-4.71,0-.37-.14-.97.22-1.2.04,1.96-.04,3.94,0,5.91Z"/>
          <path class="cls-1" d="M76.83,58.5c-.04-1.34-.02-2.71,0-4.05,0-.37-.14-.97.22-1.2,0,1.7.19,3.63-.22,5.25Z"/>
        </g>
        <path class="cls-14" d="M91.05,37.06v.22h-3.61c-.31,0-1.12.71-.98-.22h4.59Z"/>
        <polygon class="cls-13" points="89.52 32.25 87.01 32.7 86.45 32.25 89.52 32.25"/>
        <path class="cls-4" d="M90.17,34.66l-3.5.43c.11-.33,1.12-.4,1.42-.43.68-.06,1.39.03,2.07,0Z"/>
        <g>
          <path class="cls-25" d="M53.85,108.39c-5.02-.17-10-.83-14.98-1.1-2.49-.14-5.06.12-7.56,0,.03-3.77,1.87-7.36,2.18-11.05.36-4.27-.61-7.95-.88-12.02-.6-9.06.46-17.44,1.52-26.28.44-3.62.69-7.27,1.09-10.89L.9,45.16c-.6-.61,2.02-6.14,2.34-7.18,1.11-3.6,1.08-7.56.95-11.32-.02-.49-.22-.93-.23-1.41l158.62-.66-.22,21.22,16.19-5.03v3.72l-.22-2.84c-.35-.34-7.05,2.25-8.05,2.57-2.44.77-6.17,2.09-8.58,2.47.12-.66-.33-.42-.76-.44-5.65-.19-12.29.22-17.96.65-.23.02-.97.02-.97.34,0,.38,1.05.29,1.09.33.13.12-.58,2.08-.63,2.54-1.19,10.21-.19,23.48.2,33.88.29,7.61.9,15.42.86,22.99,0,.32.42,2.07-.32,2.07h-37.96c-.07,0-.42-1.12-.45-1.41-.47-4.54.14-10.48.24-15.1.2-9.1.28-18.81,1.5-27.81.4-2.97,1.28-6.76,1.55-10.05.15-1.85-.1-3.73.12-5.57l-.44-.35c-8.23.12-16.51.29-24.74.14-4.78-.09-9.89-.99-14.66-.46-.24.03-.48.02-.67.21,0,.35-.67.95-.69,1.01-.12.46.3,1.58.16,2.14-.04.16-.38.12-.43.31-4.44,15.88,3.58,31.61,4.16,47.64.05,1.4.24,6.64-.05,7.62-.11.38-.51.56-.83.7-3.09,1.32-7.62.63-10.94.55-1.64-.44-3.54-.16-5.25-.22ZM16.88,26.34c-.36.02-.73-.02-1.1,0v17.82c.04.24.82.11,1.1.13.22.01.44,0,.66,0,7.14.14,14.31-.2,21.44,0v59.95c.51.01,1.02-.02,1.53,0,7.15.2,14.71.12,21.88,0,.29,0,.59.01.88,0s1.06.12,1.1-.13v-59.82c15.97-.27,33.33-.7,49.22,0v59.82c.03.24.82.11,1.09.13,6.97.31,14.64.11,21.66,0,.22,0,.44,0,.66,0,.51-.02,1.02.01,1.53,0v-59.95c7.07-.1,14.42.32,21.44,0,.36-.02.73.01,1.1,0v-17.82c-.04-.24-.82-.11-1.1-.13-22.57-.99-46.36.24-69.03.24-24.4,0-48.99-.76-73.41-.24-.22,0-.44-.01-.66,0Z"/>
          <path class="cls-26" d="M159.31,46.91s-.19.19-.52.23c-.88.11-2-.14-2.87-.01-.69.1-.13.89-.1,1.43.41,10.05.59,20.17,1.54,30.19.22,2.32.88,4.94,1.09,7.22.51,5.47.31,11.11.86,16.59-.11.34-2.78,1.05-3.38,1.22-3.6,1.04-8.84,1.54-11.47,4.39-.4-1.51,2.07-2.03,2.94-2.86l11.28-3.05c-.43-1.18-.16-2.57-.21-3.84-.4-10.5-1.98-20.78-2.63-31.28-.37-5.96-.22-12.23-.66-18.15-.05-.61-.1-1.87-.66-1.97l4.82-.11Z"/>
          <path class="cls-29" d="M159.97,26.34v17.94c-7.02.32-14.37-.1-21.44,0-.5,0-1.04-.04-1.53,0-.2.02-.63-.12-.66.13v59.82c-7.01.11-14.69.31-21.66,0v-59.82c-.03-.24-.82-.11-1.09-.13-15.89-.7-33.25-.27-49.23,0-.36,0-.73-.02-1.09,0-.25.02-.84-.12-.88.13v59.82c-7.16.12-14.72.2-21.88,0v-59.95c-.51-.01-1.02.02-1.53,0-7.13-.2-14.31.14-21.44,0v-17.94c24.42-.52,49.01.23,73.41.24,22.67,0,46.46-1.23,69.03-.24ZM89.52,32.25h-3.06l.55.45,2.51-.45ZM90.17,34.66c-.68.03-1.39-.06-2.07,0-.31.03-1.32.1-1.42.43l3.5-.43ZM91.05,37.06h-4.59c-.14.93.67.22.98.22h3.61v-.22Z"/>
          <path class="cls-28" d="M138.53,44.28v59.95c-.51.01-1.02-.02-1.53,0v-59.95c.49-.04,1.03,0,1.53,0Z"/>
          <path class="cls-31" d="M136.99,44.28v59.95c-.22,0-.44,0-.66,0v-59.82c.03-.25.45-.11.66-.13Z"/>
          <path class="cls-10" d="M159.97,26.34c.28.01,1.06-.11,1.1.13v17.82c-.37.01-.73-.02-1.1,0v-17.94Z"/>
        </g>
      </g>
    </g>
  </g>
</svg>