<?xml version="1.0" encoding="UTF-8"?>
<svg id="Layer_2" data-name="Layer 2" xmlns="http://www.w3.org/2000/svg" xmlns:xlink="http://www.w3.org/1999/xlink" viewBox="0 0 646.37 36.5">
  <defs>
    <style>
      .cls-1 {
        fill: #fff;
      }

      .cls-2 {
        filter: url(#drop-shadow-1);
      }
    </style>
    <filter id="drop-shadow-1" x="0" y="0" width="653.37" height="40.5" filterUnits="userSpaceOnUse">
      <feOffset dx="7" dy="4"/>
      <feGaussianBlur result="blur" stdDeviation="0"/>
      <feFlood flood-color="#fff" flood-opacity=".25"/>
      <feComposite in2="blur" operator="in"/>
      <feComposite in="SourceGraphic"/>
    </filter>
  </defs>
  <g id="Layer_1-2" data-name="Layer 1">
    <g class="cls-2">
      <path class="cls-1" d="M13.43,27.63l-1.37.09c-.7,0-1.38-.08-2.05-.24-.46,0-1.07-.12-1.85-.36-2.6-.62-4.53-1.68-5.81-3.2l-.31-.36c-.99-1.28-1.64-2.99-1.93-5.14l-.05-.36c-.05-.36-.07-.8-.07-1.31s.1-1.19.29-2.06c.72-3.2,2.23-5.41,4.53-6.63l2.31-1.23c1.71-.62,3.84-.92,6.39-.92.97,0,1.86.13,2.68.38l.34.1s-.02,0-.02-.02h.03c3.86,1.03,6.43,2.72,7.71,5.09l.03.12c.57,1.15.95,2.44,1.15,3.86l-.39-.14h-10.7l-.09-.63c-.18-1.31-.49-2.18-.92-2.61l-.34-.21c-1,.07-1.57,1.44-1.69,4.1-.01.36-.03.58-.05.65l.02.55.05.99c0,.08,0,.17.02.26l.17.17h-.19c.06.85.24,1.51.54,1.97.3.46.61.68.91.68.58,0,.98-.35,1.2-1.06.22-.71.32-1.35.32-1.93.88-.05,2.2-.07,3.96-.07h.65l1.64.02h1.64l3.3.02c-.35,3.66-2.08,6.24-5.18,7.76-.23.08-.54.21-.94.39l-.65.31c-1.81.69-3.47,1.04-4.97,1.04-.16,0-.27-.02-.32-.07Z"/>
      <path class="cls-1" d="M51.83,16.77c-.02.11-.03.18-.03.21v.14c-.03,1.88-.47,3.57-1.3,5.08h.02c-1.16,1.78-2.78,3.14-4.86,4.1s-4.13,1.44-6.14,1.44-3.69-.2-5.02-.59c-1.33-.39-2.56-.97-3.68-1.72s-1.97-1.48-2.51-2.17c-1.3-1.64-1.95-3.96-1.95-6.96,0-.1.02-.19.05-.26v-.27s-.05-.09-.05-.14l.03-.19h-.02c.22-1.99.64-3.3,1.26-3.93,0-.12.08-.27.24-.43v.02l.26-.41c1.34-1.72,2.88-2.9,4.61-3.54l.6-.22c.75-.36,1.81-.64,3.16-.82l.55-.05c.08-.01.24-.02.49-.03.24-.01.42-.03.52-.07l.73.02s.07-.02.12-.02.1,0,.15.02l-.02-.02c.07.03.17.05.31.05.05-.05.12-.07.24-.07,2.47,0,4.57.51,6.31,1.52l.34.15c3.73,1.79,5.59,4.84,5.59,9.16ZM41.2,16.87c-.05-2.27-.37-3.8-.97-4.6-.25-.33-.56-.5-.91-.5s-.68.21-.95.62c-.27.42-.49,1.07-.66,1.96-.17.89-.25,1.68-.25,2.37s.03,1.28.09,1.78c.06.5.16,1.02.28,1.57.12.55.32,1.01.58,1.38.26.37.56.56.89.56,1.26,0,1.9-1.71,1.9-5.14Z"/>
      <path class="cls-1" d="M52.71,6.67l6.49-.02h6.36c.06.33.11.79.17,1.37l.38,3.73c.14,1.41.39,3.7.77,6.87h.03l1.85-11.96h12.05l-.05.34h-.05c-1.89,6.61-3.84,13.31-5.84,20.11h-16.51c-.84-2.89-1.53-5.28-2.07-7.16l-.31-1.23c-1.05-4.02-2.14-8.04-3.26-12.05Z"/>
      <path class="cls-1" d="M90.66,6.15c.51-.15,1.06-.22,1.64-.22s1.13.02,1.66.07l.72.07c1.13.1,1.99.23,2.6.39v-.02l.36.15c2.39.74,4.26,1.87,5.59,3.38v-.02c.31.36.69.91,1.14,1.65.45.74.67,1.25.67,1.53l.14.46.09.5c.22.76.32,1.4.32,1.91s0,.91.02,1.18h-14.08v.56c.07.26.1.54.1.82s0,.51,0,.68.02.32.04.48c.02.15.04.28.04.38,0,.1.03.21.08.34.05.13.07.22.08.26,0,.05.04.14.1.27s.11.26.15.38c.04.12.12.24.23.35v-.02l.19.36c.22.24.51.41.89.51.63-.14,1.05-.46,1.27-.97.22-.51.41-1.15.56-1.91.41-.11.99-.17,1.74-.17l2.19.05h6.31c-.14,1.39-.55,2.67-1.23,3.83h.02c-.59.93-1.52,1.74-2.77,2.41-3.54,1.24-5.82,1.86-6.82,1.86-.18,0-.33-.01-.44-.03h-.39l-.15.02h-.15c-.09,0-.21-.01-.34-.03-.11.07-.25.1-.41.1l-1.49-.17c-.08.03-.24.05-.49.05s-.89-.15-1.92-.46v.02l-.41-.12-.41-.14c-1.71-.5-3.17-1.38-4.39-2.64-1.22-1.26-2-2.73-2.34-4.4-.03-.21-.1-.52-.19-.93-.09-.42-.14-.7-.14-.85v-.82c0-.19,0-.34.02-.44v-.26c0-2.42.72-4.5,2.15-6.26,1.44-1.76,3.36-3,5.78-3.72l.41-.12c.6-.1,1.04-.21,1.3-.32l-.02.02ZM95.77,14.94l.36-.22c-.19-1.23-.38-2.02-.55-2.37s-.34-.65-.5-.9c-.3-.48-.69-.72-1.17-.72s-.9.24-1.24.72c-.6.84-.99,2.03-1.15,3.55.73-.05,1.4-.07,2.02-.07h2.22Z"/>
      <path class="cls-1" d="M107.17,6.65l4.55-.02h4.55l.38,2.29c.26,1.61.42,2.52.46,2.73h.6c.42-1.95,1.23-3.33,2.43-4.15l.68-.39c.03-.07.24-.19.62-.38l-.07.02.39-.15c1.12-.44,2.08-.67,2.89-.68.17,0,.28.01.34.03h.63v9.54c-.24-.06-.62-.09-1.13-.09s-1.04.07-1.58.22c-.54.15-1,.34-1.37.57-.37.23-.69.53-.97.9-.84,1.13-1.26,2.82-1.26,5.08l.03,1.79v3.14l-6.08.02h-6.07l-.02-10.2V6.65Z"/>
      <path class="cls-1" d="M127.58.17l.17-.17v.17h-.17ZM138.38,21.69l.02.15.02,2.56c0,.47-.02,1.03-.07,1.67-.05.65-.09.99-.12,1.01l-.31.03h-6.22l-.72.07c-1.78,0-2.86-.02-3.25-.07v-.12l-.02-.32v-.77c0-2.24.03-4.11.1-5.59l.19-13.16v-.51l1.33-.02.29.02h.5l.43.02.22-.02h1.23l.26-.02,5.83.07s.08-.02.1-.02.03.03.03.1l.02,1.62c.01,1.08.03,2.53.07,4.35s.05,3.1.05,3.85l-.02,2.14v.91l.05.91v.53s0,.03-.02.07v.53ZM138.31.14l.02,4.68h-10.53c0-1.09-.01-1.87-.03-2.34l-.02-2.31,10.56-.03Z"/>
      <path class="cls-1" d="M145.14,6.67l4.58-.02c.06.24.16.62.31,1.13.15.51.29,1.03.43,1.54l.32,1.28c.46-1.15.73-1.79.84-1.91l.27-.34c1.15-1.62,2.92-2.43,5.3-2.43,1.13,0,2.2.34,3.22,1.02,1.02.68,1.81,1.56,2.38,2.65.57,1.09.85,2.24.85,3.44,0,.14-.02.25-.05.32v10.51l.02,3.26h-10l-.03-8.54.07-1.74c0-1.74-.46-2.61-1.38-2.61-.99,0-1.49.83-1.49,2.48,0,.36,0,.62.02.75v.26l.02.29v9.11l-5.09.02h-5.11l-.02-10.25V6.65l4.55.02Z"/>
      <path class="cls-1" d="M180.62,24.95l.07-.99c0-.17-.05-.63-.15-1.38-.15.26-.35.52-.61.79-.26.26-.47.42-.64.46-1.24.55-2.75.82-4.52.82s-3.36-.36-4.77-1.08c-1.41-.72-2.54-1.77-3.38-3.14-.85-1.37-1.27-2.83-1.27-4.38s.23-2.92.69-4.13c.46-1.2,1.1-2.25,1.93-3.14s1.85-1.59,3.07-2.1c1.22-.51,2.55-.77,4-.77,2.31,0,4.24.64,5.79,1.93.28.31.58.56.89.77l.24-.75v-1.2h4.43l4.44-.02.02,15.94c0,.19-.01.5-.03.91v.07c-.01.22-.02.56-.02,1.03v.19l.03.91-.1.96c0,.06,0,.09,0,.1,0,.01-.04.27-.15.77s-.23.95-.38,1.33c-.47,1.25-1.4,2.4-2.79,3.43-1.39,1.03-2.6,1.62-3.62,1.77-.11.11-.34.2-.67.26-.33.06-.53.11-.6.13v-.02c-1.11.36-2.16.55-3.17.55s-1.53-.01-1.56-.03h-.51c-.1.03-.37.05-.81.05s-1.24-.13-2.4-.39l-.55-.12c-.83-.17-1.59-.42-2.27-.73-1.62-.65-2.89-1.52-3.81-2.6-.92-1.08-1.55-2.58-1.88-4.49l-.03-.15c.36.02.9.03,1.61.03l2.8-.05h7.57l-.02.07c0,.59.13,1.13.38,1.61.26.48.6.73,1.02.73.74,0,1.24-.42,1.5-1.26.21-.66.31-1.36.31-2.1v-.34s-.05.02-.05.07c-.02-.03-.03-.13-.03-.29ZM181.1,15.65l.02-.21c-.1-3.3-.83-4.96-2.19-4.96-.39,0-.73.14-1.03.43-.48.46-.81,1.14-.98,2.05-.18.91-.26,1.7-.26,2.38l.05.6v.15l-.02.12v.1c0,.93.22,1.84.67,2.73s1.01,1.32,1.69,1.32c.75,0,1.38-.93,1.88-2.8h-.09c.17-.44.26-.9.26-1.37v-.55Z"/>
      <path class="cls-1" d="M208.33,29.48c1.06-.36,1.59-1.4,1.59-3.09,0-.64-.22-1.65-.65-3.02l-.27-.85c-1.33-4.27-3-9.55-5.01-15.83h5.21l5.14-.02.77,4.43c.06.49.15,1.19.27,2.08.12.9.22,1.58.27,2.03l1.66-8.54h10.1v-.03l.34.03-.09.34h-.03l-4.51,12.51c-.47,1.17-.81,2.16-1.04,2.95-.23.79-.48,1.54-.77,2.23-.29.7-.78,2.06-1.5,4.09-.71,2.03-1.39,3.63-2.04,4.79-1.03,1.74-2.66,2.69-4.9,2.84l-1.61.02-1.38.07c-.26,0-.48-.02-.67-.05-.08.02-.2.03-.36.03l-1.04-.05-.67.05c-.06,0-.2-.01-.43-.03h-1.44l-.32-.87c-.02-.07-.03-.16-.03-.26s0-.19.02-.23v-.12l.02-.17v-1.95c0-1.34,0-2.34-.02-2.99.16-.02.33-.03.52-.03s.34.02.45.05c.16-.03.37-.05.63-.05h.14c.09-.06.3-.11.62-.15.32-.05.56-.09.73-.14.17-.05.27-.07.29-.07v.02Z"/>
      <path class="cls-1" d="M254.09,16.77c-.02.11-.04.18-.04.21v.14c-.03,1.88-.47,3.57-1.3,5.08h.02c-1.16,1.78-2.78,3.14-4.86,4.1-2.08.96-4.13,1.44-6.14,1.44s-3.69-.2-5.02-.59c-1.33-.39-2.55-.97-3.68-1.72-1.13-.75-1.97-1.48-2.51-2.17-1.3-1.64-1.95-3.96-1.95-6.96,0-.1.02-.19.05-.26v-.27s-.05-.09-.05-.14l.03-.19h-.02c.22-1.99.64-3.3,1.26-3.93,0-.12.08-.27.24-.43v.02l.26-.41c1.34-1.72,2.88-2.9,4.61-3.54l.6-.22c.75-.36,1.8-.64,3.16-.82l.55-.05c.08-.01.24-.02.49-.03.24-.01.42-.03.52-.07l.73.02s.07-.02.12-.02.1,0,.15.02l-.02-.02c.07.03.17.05.31.05.04-.05.12-.07.24-.07,2.47,0,4.57.51,6.3,1.52l.34.15c3.73,1.79,5.59,4.84,5.59,9.16ZM243.46,16.87c-.04-2.27-.37-3.8-.97-4.6-.25-.33-.55-.5-.91-.5s-.67.21-.95.62c-.27.42-.49,1.07-.66,1.96-.17.89-.25,1.68-.25,2.37s.03,1.28.09,1.78c.06.5.16,1.02.28,1.57s.32,1.01.58,1.38c.26.37.56.56.89.56,1.26,0,1.9-1.71,1.9-5.14Z"/>
      <path class="cls-1" d="M266.86,8.31l-.03,10.85c0,1.16.42,1.74,1.25,1.74.69,0,1.04-.62,1.04-1.85V6.68l5.62-.02h5.57l.02,20.42h-9.57l-.8-2.77c-1.46,2.27-3.46,3.4-6,3.4-2.19,0-4.03-.63-5.52-1.88l.02-.12c-.19-.06-.43-.27-.72-.62-.29-.36-.5-.67-.65-.93-.74-1.34-1.11-3.32-1.11-5.93l.02-.55V6.68h5.44l5.43-.02v1.64Z"/>
      <path class="cls-1" d="M282.08,6.65l4.55-.02h4.55l.38,2.29c.26,1.61.42,2.52.46,2.73h.6c.42-1.95,1.23-3.33,2.43-4.15l.68-.39c.03-.07.24-.19.62-.38l-.07.02.39-.15c1.12-.44,2.08-.67,2.89-.68.17,0,.28.01.34.03h.63v9.54c-.24-.06-.62-.09-1.13-.09s-1.04.07-1.58.22c-.54.15-1,.34-1.37.57-.37.23-.69.53-.97.9-.84,1.13-1.26,2.82-1.26,5.08l.03,1.79v3.14l-6.08.02h-6.07l-.02-10.2V6.65Z"/>
      <path class="cls-1" d="M329.77,24.95l.07-.99c0-.17-.05-.63-.15-1.38-.15.26-.35.52-.61.79-.26.26-.47.42-.64.46-1.24.55-2.75.82-4.52.82s-3.36-.36-4.77-1.08c-1.41-.72-2.54-1.77-3.38-3.14-.85-1.37-1.27-2.83-1.27-4.38s.23-2.92.69-4.13c.46-1.2,1.1-2.25,1.93-3.14s1.85-1.59,3.07-2.1c1.22-.51,2.55-.77,4-.77,2.31,0,4.24.64,5.79,1.93.28.31.58.56.89.77l.24-.75v-1.2h4.43l4.44-.02.02,15.94c0,.19-.01.5-.03.91v.07c-.01.22-.02.56-.02,1.03v.19l.04.91-.1.96c0,.06,0,.09,0,.1,0,.01-.04.27-.15.77-.1.5-.23.95-.38,1.33-.47,1.25-1.4,2.4-2.79,3.43-1.39,1.03-2.6,1.62-3.62,1.77-.11.11-.34.2-.67.26-.33.06-.53.11-.6.13v-.02c-1.11.36-2.16.55-3.17.55s-1.53-.01-1.56-.03h-.51c-.1.03-.37.05-.81.05s-1.24-.13-2.4-.39l-.55-.12c-.83-.17-1.59-.42-2.27-.73-1.62-.65-2.89-1.52-3.81-2.6-.92-1.08-1.55-2.58-1.88-4.49l-.03-.15c.36.02.9.03,1.61.03l2.8-.05h7.57l-.02.07c0,.59.13,1.13.38,1.61.26.48.6.73,1.02.73.74,0,1.24-.42,1.5-1.26.21-.66.31-1.36.31-2.1v-.34s-.05.02-.05.07c-.02-.03-.03-.13-.03-.29ZM330.24,15.65l.02-.21c-.1-3.3-.83-4.96-2.19-4.96-.39,0-.73.14-1.03.43-.48.46-.81,1.14-.98,2.05-.18.91-.26,1.7-.26,2.38l.05.6v.15l-.02.12v.1c0,.93.22,1.84.67,2.73.44.88,1.01,1.32,1.69,1.32.75,0,1.38-.93,1.88-2.8h-.08c.17-.44.26-.9.26-1.37v-.55Z"/>
      <path class="cls-1" d="M350.8,15.76l.17.02h.41c.39,0,.69-.03.91-.09l.92-.12c1.57-.11,2.52-.54,2.84-1.26.16-.36.24-.83.24-1.38-.07-.11-.1-.33-.1-.65s-.16-.65-.49-1.01c-.33-.35-.71-.53-1.15-.53h-.08c-1.09,0-1.64.93-1.64,2.79-.06.09-.15.13-.28.1-.13-.02-.45-.03-.95-.03h-8.82c.06-.79.26-1.63.62-2.55.67-1.75,1.97-3.02,3.91-3.79,1.93-.77,3.85-1.19,5.75-1.26l1.03-.05.55-.05c.07,0,.14.02.21.05h.22l.77-.03c.16,0,.52.04,1.08.12l.5.07c.08.01.21.02.38.02s.53.04,1.08.11,1.23.27,2.05.59c2.78,1.09,4.47,3.19,5.06,6.29.25,1.31.38,2.76.38,4.36.08.26.12.5.12.72l-.08,1.18v1.98s.02.12.02.29l-.03,1.16v.15c.03.06.05.14.05.24l-.02.15v.36c0,1.08.17,2.11.5,3.08l.17.38h-7.72l-.62-.02c-.46,0-.8,0-1.04.02-.37-.68-.71-1.62-1.04-2.8-.15.31-.4.66-.76,1.05-.36.39-.62.59-.79.59-1.69.82-2.97,1.29-3.85,1.4-1.3.22-2.04.32-2.24.32-2.72,0-4.78-.95-6.17-2.84-.7-.97-1.04-2.09-1.04-3.37,0-2.77,1.29-4.47,3.86-5.09.66-.16,1.94-.32,3.83-.5l.56-.05.79-.12ZM356.41,19.72l.02-.55c0-.57-.05-1.12-.14-1.64-.25.14-.62.29-1.09.46s-.86.32-1.15.44c-.29.12-.54.33-.78.63-.23.3-.35.72-.35,1.24s.17,1,.5,1.44c.34.43.7.65,1.1.65.85,0,1.46-.31,1.83-.92l.03-.17.02-1.06v-.51Z"/>
      <path class="cls-1" d="M391.14,10.08c2.12-2.77,4.23-4.15,6.34-4.15s3.96.78,5.57,2.34c.79.77,1.32,1.64,1.59,2.58l.12.46c.31,1.07.46,1.73.46,1.99s-.02.46-.07.62c.08.07.12.17.12.31l-.03.67c.02.82.03,1.4.03,1.73v10.49h-10.36l-.02-10.05.02-.38c0-1.65-.46-2.48-1.38-2.48-1.04,0-1.56.91-1.56,2.73l.03,1.18v8.97l-4.75.02h-4.73l-.02-9.18.03-1.11c0-1.48-.46-2.36-1.37-2.63-1.07.06-1.61.88-1.61,2.48l.03,1.03v9.4l-5.5.02h-5.47l-.02-10.27V6.65l4.68-.02h4.7l.12.41c.42,1.49.74,2.65.96,3.49.74-1.28,1.6-2.36,2.59-3.26.99-.89,1.97-1.34,2.95-1.34h.92c.99,0,2,.41,3.04,1.22,1.04.81,1.89,1.79,2.56,2.93Z"/>
      <path class="cls-1" d="M415.54,6.15c.51-.15,1.06-.22,1.64-.22s1.13.02,1.66.07l.72.07c1.13.1,1.99.23,2.6.39v-.02l.36.15c2.39.74,4.25,1.87,5.59,3.38v-.02c.31.36.69.91,1.14,1.65.45.74.67,1.25.67,1.53l.14.46.08.5c.22.76.33,1.4.33,1.91s0,.91.02,1.18h-14.08v.56c.07.26.1.54.1.82s0,.51,0,.68.02.32.04.48c.02.15.04.28.04.38,0,.1.03.21.08.34.05.13.07.22.08.26,0,.05.04.14.1.27s.11.26.15.38c.04.12.12.24.23.35v-.02l.19.36c.22.24.51.41.89.51.63-.14,1.05-.46,1.27-.97.22-.51.41-1.15.56-1.91.41-.11.99-.17,1.74-.17l2.19.05h6.31c-.14,1.39-.55,2.67-1.23,3.83h.02c-.59.93-1.52,1.74-2.77,2.41-3.54,1.24-5.82,1.86-6.82,1.86-.18,0-.33-.01-.45-.03h-.39l-.15.02h-.15c-.09,0-.21-.01-.34-.03-.11.07-.25.1-.41.1l-1.49-.17c-.08.03-.24.05-.49.05s-.89-.15-1.92-.46v.02l-.41-.12-.41-.14c-1.71-.5-3.17-1.38-4.39-2.64-1.22-1.26-2-2.73-2.34-4.4-.03-.21-.1-.52-.19-.93-.09-.42-.14-.7-.14-.85v-.82c0-.19,0-.34.02-.44v-.26c0-2.42.72-4.5,2.15-6.26,1.44-1.76,3.36-3,5.78-3.72l.41-.12c.6-.1,1.04-.21,1.3-.32l-.02.02ZM420.65,14.94l.36-.22c-.19-1.23-.38-2.02-.55-2.37-.17-.35-.34-.65-.5-.9-.3-.48-.69-.72-1.17-.72s-.9.24-1.24.72c-.6.84-.99,2.03-1.14,3.55.73-.05,1.4-.07,2.02-.07h2.22Z"/>
      <path class="cls-1" d="M458.42,6.8l.05-1.73V.55h5.09l5.13-.02.02,26.68h-8.72c-.24-.39-.42-.75-.53-1.08l-.68-1.2c-1.09.97-2.12,1.67-3.08,2.12s-2.14.67-3.55.67c-2.27,0-4.18-.9-5.72-2.7-1.55-1.8-2.32-4.11-2.32-6.92,0-1.86.21-3.61.63-5.26.46-1.59,1.19-3.08,2.2-4.47,1.01-1.38,2.34-2.17,3.96-2.35l.26.02,1.45-.1c1.39,0,2.97.61,4.73,1.83l.36.22-.02-.02c.26.17.43.3.5.38l.53-.24c-.19-.58-.29-.98-.29-1.2v-.1ZM454.76,17.31l-.02.6v.48c0,.63.12,1.27.36,1.93l-.02-.02c.08.34.31.78.68,1.31.38.53.76.79,1.14.79.15,0,.27-.03.36-.09,1.18-.51,1.78-2.11,1.78-4.79,0-1.86-.31-3.34-.92-4.44-.38-.68-.79-1.03-1.24-1.03s-.85.34-1.19,1.03c-.63,1.24-.94,2.65-.94,4.22Z"/>
      <path class="cls-1" d="M479.1,6.15c.51-.15,1.06-.22,1.64-.22s1.13.02,1.66.07l.72.07c1.13.1,1.99.23,2.6.39v-.02l.36.15c2.39.74,4.25,1.87,5.59,3.38v-.02c.31.36.69.91,1.14,1.65.45.74.67,1.25.67,1.53l.14.46.08.5c.22.76.33,1.4.33,1.91s0,.91.02,1.18h-14.08v.56c.07.26.1.54.1.82s0,.51,0,.68.02.32.04.48c.02.15.04.28.04.38,0,.1.03.21.08.34.05.13.07.22.08.26,0,.05.04.14.1.27s.11.26.15.38c.04.12.12.24.23.35v-.02l.19.36c.22.24.51.41.89.51.63-.14,1.05-.46,1.27-.97.22-.51.41-1.15.56-1.91.41-.11.99-.17,1.74-.17l2.19.05h6.31c-.14,1.39-.55,2.67-1.23,3.83h.02c-.59.93-1.52,1.74-2.77,2.41-3.54,1.24-5.82,1.86-6.82,1.86-.18,0-.33-.01-.45-.03h-.39l-.15.02h-.15c-.09,0-.21-.01-.34-.03-.11.07-.25.1-.41.1l-1.49-.17c-.08.03-.24.05-.49.05s-.89-.15-1.92-.46v.02l-.41-.12-.41-.14c-1.71-.5-3.17-1.38-4.39-2.64-1.22-1.26-2-2.73-2.34-4.4-.03-.21-.1-.52-.19-.93-.09-.42-.14-.7-.14-.85v-.82c0-.19,0-.34.02-.44v-.26c0-2.42.72-4.5,2.15-6.26,1.44-1.76,3.36-3,5.78-3.72l.41-.12c.6-.1,1.04-.21,1.3-.32l-.02.02ZM484.21,14.94l.36-.22c-.19-1.23-.38-2.02-.55-2.37-.17-.35-.34-.65-.5-.9-.3-.48-.69-.72-1.17-.72s-.9.24-1.24.72c-.6.84-.99,2.03-1.14,3.55.73-.05,1.4-.07,2.02-.07h2.22Z"/>
      <path class="cls-1" d="M494.77,6.67l6.49-.02h6.36c.06.33.11.79.17,1.37l.38,3.73c.14,1.41.39,3.7.77,6.87h.03l1.85-11.96h12.05l-.05.34h-.05c-1.89,6.61-3.84,13.31-5.85,20.11h-16.51c-.84-2.89-1.53-5.28-2.07-7.16l-.31-1.23c-1.05-4.02-2.14-8.04-3.26-12.05Z"/>
      <path class="cls-1" d="M540.91,6.67l4.58-.02c.06.24.16.62.31,1.13.15.51.29,1.03.43,1.54l.33,1.28c.46-1.15.74-1.79.84-1.91l.27-.34c1.15-1.62,2.92-2.43,5.3-2.43,1.13,0,2.2.34,3.22,1.02,1.02.68,1.81,1.56,2.38,2.65.57,1.09.85,2.24.85,3.44,0,.14-.02.25-.05.32v10.51l.02,3.26h-10l-.03-8.54.07-1.74c0-1.74-.46-2.61-1.38-2.61-.99,0-1.49.83-1.49,2.48,0,.36,0,.62.02.75v.26l.02.29v9.11l-5.09.02h-5.11l-.02-10.25V6.65l4.55.02Z"/>
      <path class="cls-1" d="M569.91,6.15c.51-.15,1.06-.22,1.64-.22s1.13.02,1.66.07l.72.07c1.13.1,1.99.23,2.6.39v-.02l.36.15c2.39.74,4.25,1.87,5.59,3.38v-.02c.31.36.69.91,1.14,1.65.45.74.67,1.25.67,1.53l.14.46.08.5c.22.76.33,1.4.33,1.91s0,.91.02,1.18h-14.08v.56c.07.26.1.54.1.82s0,.51,0,.68.02.32.04.48c.02.15.04.28.04.38,0,.1.03.21.08.34.05.13.07.22.08.26,0,.05.04.14.1.27s.11.26.15.38c.04.12.12.24.23.35v-.02l.19.36c.22.24.51.41.89.51.63-.14,1.05-.46,1.27-.97.22-.51.41-1.15.56-1.91.41-.11.99-.17,1.74-.17l2.19.05h6.31c-.14,1.39-.55,2.67-1.23,3.83h.02c-.59.93-1.52,1.74-2.77,2.41-3.54,1.24-5.82,1.86-6.82,1.86-.18,0-.33-.01-.45-.03h-.39l-.15.02h-.15c-.09,0-.21-.01-.34-.03-.11.07-.25.1-.41.1l-1.49-.17c-.08.03-.24.05-.49.05s-.89-.15-1.92-.46v.02l-.41-.12-.41-.14c-1.71-.5-3.17-1.38-4.39-2.64-1.22-1.26-2-2.73-2.34-4.4-.03-.21-.1-.52-.19-.93-.09-.42-.14-.7-.14-.85v-.82c0-.19,0-.34.02-.44v-.26c0-2.42.72-4.5,2.15-6.26,1.44-1.76,3.36-3,5.78-3.72l.41-.12c.6-.1,1.04-.21,1.3-.32l-.02.02ZM575.02,14.94l.36-.22c-.19-1.23-.38-2.02-.55-2.37-.17-.35-.34-.65-.5-.9-.3-.48-.69-.72-1.17-.72s-.9.24-1.24.72c-.6.84-.99,2.03-1.14,3.55.73-.05,1.4-.07,2.02-.07h2.22Z"/>
      <path class="cls-1" d="M605.17,6.84l1.26,8.17h.04c.16-.87.36-2.11.62-3.73l.27-1.78.24-1.26c.08-.77.16-1.31.24-1.61h11.19c-.66,3.09-1.88,8.66-3.66,16.73l-.96,3.76h-10.87l-.38-2.85c-.19-1.25-.4-2.75-.61-4.5-.21-1.75-.33-2.62-.35-2.62l-1.5,9.98h-11.57c-.39-1.8-.78-3.98-1.18-6.55-.4-2.57-.64-4.1-.72-4.61l-.36-2.27s-.4-2.37-1.2-7.08h5.72l5.69-.02c.02.31.05.54.08.68l.1.73c.41,3.59.66,5.98.75,7.18h.07c.04-.27.11-.73.21-1.38.09-.64.17-1.14.22-1.5l.84-5.01.03-.44c1.24-.02,3.16-.03,5.76-.03Z"/>
      <path class="cls-1" d="M641.02,11.09l-1.56-.02c-.92,0-2.35.01-4.29.03-.14-.38-.41-.69-.83-.96-.42-.26-.88-.39-1.38-.39s-.91.11-1.23.33c-.32.22-.48.53-.48.93s.15.76.45,1.08c.3.32.73.54,1.27.67.55.13,1.09.22,1.63.27.54.05,1.17.09,1.9.14.72.05,1.27.1,1.64.16s.84.13,1.41.2c1.01.14,1.91.32,2.69.56s1.6.72,2.45,1.46c.17.08.4.29.68.63.51.79.84,1.93.97,3.42-.06,1.64-.66,3.1-1.79,4.37-1.14,1.27-2.58,2.19-4.32,2.76-.14.07-.31.11-.51.14l-.58.14c-1.11.32-2.06.48-2.87.48-.49.16-1.28.24-2.36.24l-.43-.02h-1.25l-.19.02c-1.77,0-3.66-.29-5.67-.85v.02c-4.3-1.06-6.45-2.91-6.46-5.54.6.05,1.44.07,2.51.07s2.52,0,4.35-.03c1.83-.02,3.21-.03,4.16-.03-.01.07-.02.18-.02.34,0,.5.26.91.77,1.23.51.32,1.1.48,1.78.48s1.2-.13,1.59-.39c.39-.26.58-.6.58-1.02s-.11-.76-.32-1.04c-.22-.28-.54-.49-.96-.62-.42-.14-.81-.24-1.17-.3-.36-.06-.82-.12-1.39-.16-.57-.05-.99-.09-1.26-.14-.27-.05-.68-.1-1.21-.18-.54-.07-1.01-.14-1.41-.19-.41-.05-.88-.13-1.42-.23s-1.02-.21-1.44-.32c-.42-.11-.86-.25-1.34-.44-.48-.18-.9-.38-1.25-.6-1.72-1.07-2.58-2.63-2.58-4.68,0-1.83.52-3.25,1.55-4.26,1.3-1.24,3.41-2.05,6.32-2.43.3-.05.72-.13,1.26-.25.55-.12.92-.18,1.13-.18s.34.01.41.03l2.17-.12,3.01.14c.11.01.44.03.99.07,1.36.1,2.55.29,3.58.57,1.03.28,2.02.82,2.96,1.63.94.81,1.48,1.69,1.62,2.63l-.12-.03-3.76.17Z"/>
    </g>
  </g>
</svg>