<?xml version="1.0" encoding="UTF-8"?>
<svg id="Layer_2" data-name="Layer 2" xmlns="http://www.w3.org/2000/svg" xmlns:xlink="http://www.w3.org/1999/xlink" viewBox="0 0 788.89 39.4">
  <defs>
    <style>
      .cls-1 {
        fill: #fff;
      }

      .cls-2 {
        filter: url(#drop-shadow-1);
      }
    </style>
    <filter id="drop-shadow-1" x="0" y="0" width="795.89" height="43.4" filterUnits="userSpaceOnUse">
      <feOffset dx="7" dy="4"/>
      <feGaussianBlur result="blur" stdDeviation="0"/>
      <feFlood flood-color="#fff" flood-opacity=".25"/>
      <feComposite in2="blur" operator="in"/>
      <feComposite in="SourceGraphic"/>
    </filter>
  </defs>
  <g id="Layer_1-2" data-name="Layer 1">
    <g class="cls-2">
      <path class="cls-1" d="M0,8.59c0-.29.02-.73.05-1.31.03-.58.05-.97.05-1.18,0-.08-.02-.37-.05-.88-.03-.5-.05-.94-.05-1.32C0,2.18.16,1.32.49,1.32c.13,0,.24.02.34.05,3.4,0,8.44-.04,15.12-.12,6.68-.08,11.68-.12,15-.12.83,0,1.35.07,1.57.22s.33.43.33.85v.68c0,.85,0,2.1.02,3.75.02,1.65.02,2.91.02,3.77s-.23,1.27-.68,1.27c-.91,0-2.27-.02-4.08-.05-1.81-.03-3.17-.05-4.08-.05v26.17c-.11.49-.39.75-.83.78-.57,0-1.4,0-2.49-.02-1.09-.02-1.92-.02-2.49-.02-.03,0-.07.02-.1.05-.72,0-1.72,0-3.02-.02-1.29-.02-2.26-.02-2.89-.02h-1.46c-.33.03-.8.05-1.42.05l-.98-1.17c0-2.47.08-6.15.24-11.04.16-4.88.24-8.56.24-11.04,0-.11,0-.3-.01-.56,0-.26-.01-.47-.01-.63s-.01-.37-.04-.61-.07-.44-.12-.6c-.06-.15-.13-.31-.21-.46-.08-.15-.19-.27-.33-.34-.14-.07-.31-.11-.5-.11H.68c-.46-.13-.68-1.25-.68-3.37Z"/>
      <path class="cls-1" d="M41.36,38.48c-.46,0-.98.01-1.59.04-.6.02-1.07.04-1.39.06-.33.02-.7.01-1.11-.01-.42-.03-.73-.08-.94-.17-.21-.09-.44-.22-.67-.4-.24-.18-.41-.42-.51-.73-.11-.31-.2-.69-.27-1.15-.07-.46-.11-1-.11-1.64,0-3.52.06-8.31.2-14.39.13-6.08.2-10.54.2-13.39,0-3.52.18-5.37.54-5.57h9.08c1.61,0,2.81.09,3.6.28.79.19,1.31.47,1.57.84.26.37.39.94.39,1.71,0,.23-.02.67-.05,1.33-.03.66-.05,1.21-.05,1.65v1.12c0,.52-.02,1.3-.07,2.34-.05,1.04-.07,1.82-.07,2.34v.49c.03.1.05.23.05.39h.98c.28,0,.7,0,1.27.02.57.02.99.02,1.27.02.75,0,1.3-.05,1.66-.15V3.37c0-.81.04-1.4.12-1.75.08-.35.2-.57.34-.66.15-.09.42-.13.81-.13.21,0,.55,0,1.03.02.47.02.81.02,1.03.02l1.81-.07c1.22-.05,2.31-.07,3.27-.07,4.43,0,6.64.49,6.64,1.46,0,.26,0,.63.02,1.12.02.49.02.86.02,1.12,0,.57,0,1.4-.02,2.49-.02,1.09-.02,1.92-.02,2.49,0,1.69.02,4.22.07,7.57.05,3.35.07,5.88.07,7.57,0,.15,0,.33-.02.55-.02.22-.02.36-.02.43v1.17c0,1.04.02,1.82.05,2.34v.54c-.03.07-.05.16-.05.29,0,.86.02,2.17.05,3.93.03,1.76.05,3.07.05,3.93-.11.59-1.68.88-4.69.88h-10.16l-.73-1.03v-1.61c0-1.09,0-2.7.02-4.83.02-2.13.02-3.74.02-4.83,0-.37-.04-.63-.13-.77-.09-.14-.27-.21-.55-.21h-.88c-1.11,0-2.12.07-3.03.2,0,1.35-.02,3.38-.05,6.09-.03,2.71-.05,4.75-.05,6.12-.2.49-2.23.73-6.1.73h-2.88Z"/>
      <path class="cls-1" d="M75.2,36.96v-.93c0-2.78.03-6.89.1-12.33.06-5.44.1-9.55.1-12.33V1.27h28.42v8.76c0,.07,0,.18-.02.35-.02.17-.04.29-.09.35-.04.07-.1.16-.17.28s-.16.21-.26.26-.23.09-.39.13c-.16.04-.34.06-.54.06h-.68c-4.22,0-8.06-.06-11.52-.2-.03.26-.09.66-.16,1.21-.07.55-.13,1.03-.17,1.44-.04.42-.06.82-.06,1.21h11.62c.49,0,.81.07.98.2.16.13.24.34.24.63,0,.08,0,.21-.02.39-.02.18-.02.31-.02.39,0,.78.02,1.94.07,3.47.05,1.53.07,2.69.07,3.47-.05.33-.18.49-.39.49-.1,0-.18-.03-.24-.1-5.14.26-8.95.39-11.43.39h-.63v3.52c1.45,0,3.54-.06,6.29-.2,2.74-.13,4.8-.2,6.16-.2,1.07,0,1.69.23,1.86.68v1.86c0,.78.02,1.94.05,3.47.03,1.53.05,2.69.05,3.47s-.33,1.22-.98,1.22c-.85,0-2.15,0-3.91-.02-1.76-.02-3.09-.02-4-.02-2.34,0-5.7.06-10.06.18-4.36.12-7.52.19-9.47.21l-.68-.78c-.07-.46-.1-.75-.1-.88Z"/>
      <path class="cls-1" d="M119.48,8.59c0-.29.02-.73.05-1.31.03-.58.05-.97.05-1.18,0-.08-.02-.37-.05-.88-.03-.5-.05-.94-.05-1.32,0-1.73.16-2.59.49-2.59.13,0,.24.02.34.05,3.4,0,8.44-.04,15.12-.12,6.68-.08,11.68-.12,15-.12.83,0,1.36.07,1.57.22.22.15.33.43.33.85v.68c0,.85,0,2.1.02,3.75.02,1.65.02,2.91.02,3.77s-.23,1.27-.68,1.27c-.91,0-2.27-.02-4.08-.05-1.81-.03-3.17-.05-4.08-.05v26.17c-.11.49-.39.75-.83.78-.57,0-1.4,0-2.49-.02-1.09-.02-1.92-.02-2.49-.02-.03,0-.07.02-.1.05-.72,0-1.72,0-3.02-.02-1.29-.02-2.26-.02-2.89-.02h-1.46c-.33.03-.8.05-1.42.05l-.98-1.17c0-2.47.08-6.15.24-11.04.16-4.88.24-8.56.24-11.04,0-.11,0-.3-.01-.56,0-.26-.01-.47-.01-.63s-.01-.37-.04-.61c-.03-.24-.07-.44-.12-.6-.06-.15-.13-.31-.21-.46-.08-.15-.19-.27-.33-.34-.14-.07-.3-.11-.5-.11h-6.98c-.46-.13-.68-1.25-.68-3.37Z"/>
      <path class="cls-1" d="M148.14,37.84c1.01-3.73,2.12-7.51,3.34-11.35,1.22-3.84,2.74-8.43,4.55-13.78,1.81-5.35,3.05-9.05,3.72-11.1.2-.33.33-.52.39-.59h4.1c.96,0,2.38-.02,4.25-.05,1.87-.03,3.29-.05,4.25-.05h4.1c.24,0,.45,0,.61.01.16,0,.36.03.59.06.23.03.41.08.55.15.14.07.26.16.35.29.1.13.15.29.15.46l11.25,35.67c0,.33-.12.55-.35.67-.24.12-.68.18-1.33.18h-2.25c-.65,0-1.62,0-2.91.02-1.29.02-2.25.02-2.91.02-.2,0-.59.01-1.18.04-.59.02-1.1.03-1.5.02-.41,0-.86-.03-1.36-.07-.5-.04-.89-.13-1.2-.27-.3-.14-.49-.32-.57-.55v-1.61c-.16-.81-.45-1.56-.85-2.25-.41-.68-.84-1.03-1.29-1.03h-8.4l-1.27,5.18c-.18.39-1.09.59-2.73.59h-1.95c-.7,0-1.74.02-3.12.07-1.38.05-2.43.07-3.12.07h-.68c-.26,0-.67,0-1.23.02-.56.02-1,.02-1.31.02-.13-.13-.36-.42-.68-.88ZM165.09,23.02l.68,1.15h1.61c1.3,0,2.49-.08,3.58-.23,1.08-.15,1.62-.4,1.62-.74l-3.15-14.06c-.29,0-.69.55-1.18,1.66-.5,1.11-.9,2.36-1.21,3.76l-1.95,8.47Z"/>
      <path class="cls-1" d="M191.55,34.52V1.66l21.09-.73c1.3,0,2.52.08,3.66.24,1.14.16,2.29.47,3.46.92,1.16.45,2.16,1.03,2.98,1.73.82.71,1.49,1.65,2.01,2.82.52,1.17.78,2.52.78,4.05,0,2.03-.45,3.68-1.34,4.94-.9,1.26-2.24,2.38-4.03,3.36,2.1.59,3.7,1.6,4.8,3.04,1.1,1.44,1.65,3.26,1.65,5.46,0,1.63-.31,3.09-.93,4.38-.62,1.29-1.42,2.35-2.39,3.16-.98.81-2.12,1.49-3.44,2.03s-2.62.92-3.92,1.13c-1.29.22-2.62.33-3.97.33-.78,0-1.96-.02-3.53-.05-1.57-.03-2.76-.05-3.55-.05-4.53,0-8.68.06-12.45.2-.54-.86-.83-2.23-.88-4.1ZM205.57,9.81c0,.73.02,1.82.07,3.27.05,1.45.07,2.54.07,3.27,0,.31.2.49.59.54.23-.03.62-.09,1.18-.16.56-.07,1-.13,1.33-.18.33-.05.72-.17,1.18-.35.46-.19.83-.41,1.09-.67.26-.26.49-.64.68-1.14.2-.5.29-1.08.29-1.75,0-2.47-1.71-3.71-5.13-3.71-.68.11-1.08.23-1.2.34-.11.13-.17.31-.17.54ZM206.01,28.42c0,1.21.06,1.81.2,1.81h.78c.63,0,1.18-.02,1.65-.06.46-.04.96-.14,1.5-.31.54-.16.97-.39,1.29-.67.33-.29.6-.69.83-1.21.23-.52.34-1.14.34-1.86,0-.41-.04-.78-.12-1.12-.08-.34-.21-.63-.39-.88-.18-.24-.35-.46-.52-.63-.17-.18-.42-.33-.73-.45-.32-.12-.58-.22-.78-.29-.2-.07-.51-.13-.92-.18-.41-.05-.7-.08-.88-.1-.18-.02-.49-.04-.93-.06-.44-.03-.72-.04-.83-.04v.93c-.02.18-.1.78-.26,1.81-.16,1.03-.23,1.84-.23,2.44v.88Z"/>
      <path class="cls-1" d="M230.13,5.22c0-2.65.28-4.13.83-4.44.16.03.39.05.68.05h.78c.5,0,1.33-.02,2.49-.05,1.16-.03,2.03-.05,2.64-.05,2.31,0,4.18.09,5.6.28,1.42.19,2.22.53,2.4,1.04l-.29,25.2h.54c1.3-.06,2.21-.09,2.73-.09.52,0,1.48.04,2.87.1,1.39.06,2.73.09,4.02.09,1.06,0,1.84.06,2.36.18.51.12.77.37.77.74v9.38c-.21.59-3.84.88-10.89.88h-16.89c-.39-.57-.59-1.48-.59-2.73v-6.93c0-2.03.02-5.04.05-9.03.03-3.99.05-7,.05-9.03,0-.37-.02-1.2-.07-2.49-.05-1.29-.07-2.31-.07-3.08Z"/>
      <path class="cls-1" d="M260.74,36.96v-.93c0-2.78.03-6.89.1-12.33.06-5.44.1-9.55.1-12.33V1.27h28.42v8.76c0,.07,0,.18-.02.35-.02.17-.04.29-.08.35-.04.07-.1.16-.17.28-.07.12-.16.21-.26.26s-.23.09-.39.13c-.16.04-.34.06-.54.06h-.68c-4.22,0-8.06-.06-11.52-.2-.03.26-.09.66-.16,1.21-.07.55-.13,1.03-.17,1.44-.04.42-.06.82-.06,1.21h11.62c.49,0,.81.07.98.2.16.13.24.34.24.63,0,.08,0,.21-.02.39-.02.18-.02.31-.02.39,0,.78.02,1.94.07,3.47.05,1.53.07,2.69.07,3.47-.05.33-.18.49-.39.49-.1,0-.18-.03-.24-.1-5.14.26-8.95.39-11.43.39h-.63v3.52c1.45,0,3.54-.06,6.29-.2,2.74-.13,4.8-.2,6.16-.2,1.07,0,1.69.23,1.86.68v1.86c0,.78.02,1.94.05,3.47.03,1.53.05,2.69.05,3.47s-.33,1.22-.98,1.22c-.85,0-2.15,0-3.91-.02-1.76-.02-3.09-.02-4-.02-2.34,0-5.7.06-10.06.18-4.36.12-7.52.19-9.47.21l-.68-.78c-.07-.46-.1-.75-.1-.88Z"/>
      <path class="cls-1" d="M327.69,24.76c-.28,2.44-.92,4.6-1.93,6.48-1.01,1.88-2.3,3.41-3.88,4.59-1.58,1.18-3.37,2.07-5.38,2.67-2.01.6-4.2.9-6.58.9-2.21,0-4.23-.24-6.05-.72-1.82-.48-3.36-1.12-4.61-1.92-1.25-.8-2.36-1.77-3.32-2.92-.96-1.15-1.73-2.33-2.29-3.54-.57-1.21-1.03-2.54-1.38-3.98-.35-1.44-.59-2.78-.71-4.03-.12-1.25-.18-2.54-.18-3.89v-2.15c.16-2.38.72-4.51,1.66-6.41.94-1.9,2.09-3.43,3.44-4.59,1.35-1.16,2.9-2.13,4.64-2.91,1.74-.77,3.43-1.31,5.08-1.61,1.64-.3,3.28-.45,4.91-.45,2.62,0,4.94.31,6.95.94,2.01.63,3.65,1.51,4.92,2.65,1.27,1.14,2.26,2.45,2.98,3.92.72,1.47,1.17,3.12,1.37,4.94v2.34c0,.52-1.79.78-5.37.78-.85,0-2.02-.02-3.53-.05-1.51-.03-2.5-.05-2.97-.05-.08,0-.2,0-.37.02-.16.02-.29.02-.37.02-.42,0-.74-.17-.96-.52-.22-.35-.37-.78-.44-1.28-.07-.5-.16-1.01-.27-1.51-.11-.5-.33-.93-.66-1.28-.33-.35-.79-.52-1.38-.52s-1.1.1-1.54.29-.79.5-1.05.92c-.26.42-.48.83-.65,1.26-.17.42-.29.97-.37,1.65-.07.68-.12,1.25-.15,1.71-.02.46-.04,1.08-.06,1.85-.02.77-.03,1.34-.05,1.7,0,.2-.02.55-.05,1.07-.03.52-.05.94-.05,1.27,0,4.05,1.07,6.14,3.22,6.25.59,0,1.07-.21,1.44-.63.37-.42.63-.89.77-1.42.14-.52.3-1.07.48-1.65.18-.58.37-.97.59-1.18h13.28c.54.05.83.38.88.98Z"/>
      <path class="cls-1" d="M330.86,5.22c0-2.65.28-4.13.83-4.44.16.03.39.05.68.05h.78c.5,0,1.33-.02,2.49-.05,1.16-.03,2.03-.05,2.64-.05,2.31,0,4.18.09,5.6.28,1.42.19,2.22.53,2.4,1.04l-.29,25.2h.54c1.3-.06,2.21-.09,2.73-.09.52,0,1.48.04,2.87.1,1.39.06,2.73.09,4.02.09,1.06,0,1.84.06,2.36.18.51.12.77.37.77.74v9.38c-.21.59-3.84.88-10.89.88h-16.89c-.39-.57-.59-1.48-.59-2.73v-6.93c0-2.03.02-5.04.05-9.03.03-3.99.05-7,.05-9.03,0-.37-.02-1.2-.07-2.49-.05-1.29-.07-2.31-.07-3.08Z"/>
      <path class="cls-1" d="M359.81,19.48v-2.69c.16-2.28.66-4.36,1.49-6.24s1.88-3.46,3.16-4.75c1.28-1.29,2.75-2.37,4.43-3.26,1.68-.89,3.43-1.53,5.26-1.94,1.83-.41,3.72-.61,5.68-.61,1.07,0,2.19.09,3.36.27,1.16.18,2.4.46,3.7.85,1.3.39,2.55.96,3.75,1.72,1.2.76,2.19,1.65,2.97,2.67,1.61,1.97,2.78,4.03,3.5,6.19.72,2.16,1.09,4.55,1.09,7.19.05,5.5-1.16,9.93-3.61,13.28l-1.07,1.46c-.94,1.3-2.29,2.39-4.05,3.26-1.76.87-3.52,1.47-5.27,1.81-1.76.33-3.53.5-5.32.5-2.1,0-4.04-.21-5.81-.63-1.77-.42-3.3-.99-4.59-1.71-1.29-.72-2.43-1.59-3.44-2.61-1.01-1.03-1.83-2.11-2.48-3.25-.64-1.14-1.17-2.38-1.59-3.71-.41-1.33-.71-2.64-.88-3.91-.17-1.27-.26-2.57-.26-3.91ZM379.25,9.81c-.67,0-1.27.15-1.79.46-.53.31-.96.68-1.29,1.12-.33.44-.62,1.03-.87,1.77-.24.74-.42,1.41-.54,2-.11.59-.2,1.34-.27,2.25-.07.9-.1,1.6-.11,2.1,0,.5-.01,1.13-.01,1.92s.03,1.46.09,2.14c.06.67.18,1.39.37,2.15.19.76.43,1.42.73,1.98.3.56.72,1.03,1.25,1.42.53.38,1.13.59,1.82.62.72,0,1.35-.12,1.9-.35.55-.24,1.02-.54,1.39-.9.37-.37.69-.86.95-1.48.26-.62.46-1.21.6-1.78.14-.57.24-1.28.32-2.12.07-.85.12-1.57.13-2.19.02-.61.02-1.38.02-2.31,0-.68-.02-1.32-.06-1.9-.04-.59-.11-1.24-.21-1.95-.1-.72-.26-1.35-.49-1.89-.23-.54-.5-1.06-.83-1.54-.33-.48-.75-.85-1.28-1.11-.53-.26-1.13-.39-1.82-.39Z"/>
      <path class="cls-1" d="M398.22,8.59c0-.29.02-.73.05-1.31.03-.58.05-.97.05-1.18,0-.08-.02-.37-.05-.88-.03-.5-.05-.94-.05-1.32,0-1.73.16-2.59.49-2.59.13,0,.24.02.34.05,3.4,0,8.44-.04,15.12-.12,6.68-.08,11.68-.12,15-.12.83,0,1.36.07,1.57.22.22.15.33.43.33.85v.68c0,.85,0,2.1.02,3.75.02,1.65.02,2.91.02,3.77s-.23,1.27-.68,1.27c-.91,0-2.27-.02-4.08-.05-1.81-.03-3.17-.05-4.08-.05v26.17c-.11.49-.39.75-.83.78-.57,0-1.4,0-2.49-.02-1.09-.02-1.92-.02-2.49-.02-.03,0-.07.02-.1.05-.72,0-1.72,0-3.02-.02-1.29-.02-2.26-.02-2.89-.02h-1.46c-.33.03-.8.05-1.42.05l-.98-1.17c0-2.47.08-6.15.24-11.04.16-4.88.24-8.56.24-11.04,0-.11,0-.3-.01-.56,0-.26-.01-.47-.01-.63s-.01-.37-.04-.61c-.03-.24-.07-.44-.12-.6-.06-.15-.13-.31-.21-.46-.08-.15-.19-.27-.33-.34-.14-.07-.3-.11-.5-.11h-6.98c-.46-.13-.68-1.25-.68-3.37Z"/>
      <path class="cls-1" d="M439.58,38.48c-.46,0-.99.01-1.59.04-.6.02-1.07.04-1.39.06-.33.02-.7.01-1.11-.01-.41-.03-.73-.08-.94-.17-.21-.09-.44-.22-.67-.4-.24-.18-.41-.42-.51-.73-.11-.31-.2-.69-.27-1.15-.07-.46-.11-1-.11-1.64,0-3.52.06-8.31.2-14.39.13-6.08.2-10.54.2-13.39,0-3.52.18-5.37.54-5.57h9.08c1.61,0,2.81.09,3.6.28.79.19,1.31.47,1.57.84.26.37.39.94.39,1.71,0,.23-.02.67-.05,1.33-.03.66-.05,1.21-.05,1.65v1.12c0,.52-.02,1.3-.07,2.34-.05,1.04-.07,1.82-.07,2.34v.49c.03.1.05.23.05.39h.98c.28,0,.7,0,1.27.02.57.02.99.02,1.27.02.75,0,1.3-.05,1.66-.15V3.37c0-.81.04-1.4.12-1.75.08-.35.2-.57.34-.66.15-.09.42-.13.81-.13.21,0,.55,0,1.03.02.47.02.81.02,1.03.02l1.81-.07c1.22-.05,2.31-.07,3.27-.07,4.43,0,6.64.49,6.64,1.46,0,.26,0,.63.02,1.12.02.49.02.86.02,1.12,0,.57,0,1.4-.02,2.49-.02,1.09-.02,1.92-.02,2.49,0,1.69.02,4.22.07,7.57.05,3.35.07,5.88.07,7.57,0,.15,0,.33-.02.55-.02.22-.02.36-.02.43v1.17c0,1.04.02,1.82.05,2.34v.54c-.03.07-.05.16-.05.29,0,.86.02,2.17.05,3.93.03,1.76.05,3.07.05,3.93-.11.59-1.68.88-4.69.88h-10.16l-.73-1.03v-1.61c0-1.09,0-2.7.02-4.83.02-2.13.02-3.74.02-4.83,0-.37-.04-.63-.13-.77-.09-.14-.27-.21-.55-.21h-.88c-1.11,0-2.12.07-3.03.2,0,1.35-.02,3.38-.05,6.09-.03,2.71-.05,4.75-.05,6.12-.2.49-2.23.73-6.1.73h-2.88Z"/>
      <path class="cls-1" d="M537.67,28.71c0,.29.02.74.05,1.36.03.61.06,1.19.07,1.75.02.55.03,1.17.04,1.84,0,.68-.02,1.29-.07,1.83-.06.54-.14,1.06-.26,1.54-.11.48-.29.85-.52,1.11-.24.26-.53.39-.87.39h-11.13c-.78-.6-1.17-2.85-1.17-6.74,0-1.42,0-3.12.02-5.12.02-1.99.02-3.41.02-4.26v-1.71c0-.15-.01-.43-.04-.84-.02-.42-.03-.74-.01-.96-.65,2.36-1.45,5.74-2.39,10.13-.94,4.39-1.6,7.33-1.95,8.81-.16.46-.91.68-2.25.68h-8.64c-1.06,0-1.68-.28-1.86-.83l-2.34-10.21c-.21-1.04-.44-2.12-.7-3.25-.25-1.12-.55-2.4-.89-3.83-.34-1.43-.59-2.49-.76-3.17-.2,5.21-.29,9.18-.29,11.91v4.3c0,1.92.02,3.37.05,4.35-.1.36-.28.54-.54.54h-2.29c-.96,0-2.37,0-4.22.02-1.86.02-3.26.02-4.22.02-.88,0-1.32-.15-1.32-.44V1.71c0-.15.04-.27.11-.38.07-.11.19-.19.34-.24.16-.06.31-.1.45-.13.15-.03.33-.05.56-.06.23,0,.42-.02.56-.02.15,0,.33,0,.56,0,.23,0,.37.01.44.01h2.88c4.64,0,7.91.07,9.8.2,1.9.13,3.35.2,4.36.2.39,2.18,1.01,5.42,1.86,9.72l1.86,9.72,3.91-19.73c.26.07.42.1.49.1,1.74,0,4.31-.02,7.71-.07,3.4-.05,5.97-.07,7.71-.07h3.61c.46.05.68.5.68,1.37.36,15.77.55,24.58.59,26.42Z"/>
      <path class="cls-1" d="M538.55,37.84c1.01-3.73,2.12-7.51,3.34-11.35,1.22-3.84,2.74-8.43,4.55-13.78,1.81-5.35,3.05-9.05,3.72-11.1.2-.33.33-.52.39-.59h4.1c.96,0,2.38-.02,4.25-.05,1.87-.03,3.29-.05,4.25-.05h4.1c.24,0,.45,0,.61.01.16,0,.36.03.59.06.23.03.41.08.55.15.14.07.26.16.35.29.1.13.15.29.15.46l11.25,35.67c0,.33-.12.55-.35.67-.24.12-.68.18-1.33.18h-2.25c-.65,0-1.62,0-2.91.02-1.29.02-2.25.02-2.91.02-.2,0-.59.01-1.18.04-.59.02-1.1.03-1.5.02-.41,0-.86-.03-1.36-.07-.5-.04-.89-.13-1.2-.27-.3-.14-.49-.32-.57-.55v-1.61c-.16-.81-.45-1.56-.85-2.25-.41-.68-.84-1.03-1.29-1.03h-8.4l-1.27,5.18c-.18.39-1.09.59-2.73.59h-1.95c-.7,0-1.74.02-3.12.07-1.38.05-2.43.07-3.12.07h-.68c-.26,0-.67,0-1.23.02-.56.02-1,.02-1.31.02-.13-.13-.36-.42-.68-.88ZM555.49,23.02l.68,1.15h1.61c1.3,0,2.49-.08,3.58-.23,1.08-.15,1.62-.4,1.62-.74l-3.15-14.06c-.29,0-.69.55-1.18,1.66-.5,1.11-.9,2.36-1.21,3.76l-1.95,8.47Z"/>
      <path class="cls-1" d="M580.74,19.58c0-2.25.25-4.3.76-6.18.5-1.87,1.18-3.46,2.01-4.76.84-1.3,1.85-2.46,3.03-3.47,1.18-1.01,2.4-1.82,3.65-2.43,1.25-.61,2.6-1.11,4.04-1.5,1.44-.39,2.79-.65,4.04-.79,1.25-.14,2.52-.21,3.81-.21.94,0,1.87.04,2.77.12.9.08,1.92.22,3.05.43,1.13.2,2.19.52,3.17.94.99.42,1.93.94,2.83,1.55.9.61,1.69,1.4,2.36,2.37.67.97,1.15,2.06,1.44,3.28.08.47.24,1.81.49,4-.07.49-.59.73-1.56.73-1.4,0-3.43-.03-6.1-.1-2.67-.06-4.67-.1-6.01-.1-.2-.06-.35-.2-.46-.39-.11-.2-.19-.41-.23-.63-.04-.23-.11-.47-.2-.73-.09-.26-.2-.49-.34-.7-.14-.2-.38-.37-.73-.51-.35-.14-.79-.21-1.31-.21-.68,0-1.29.12-1.83.35-.54.24-.98.52-1.32.87s-.63.81-.88,1.39-.43,1.12-.55,1.6c-.12.48-.22,1.09-.28,1.83-.07.74-.1,1.32-.11,1.75,0,.42-.01.99-.01,1.68,0,.21,0,.47.02.78.02.31.02.52.02.63v.73c0,.52,0,.95.02,1.29.02.34.06.78.13,1.32.07.54.17.99.31,1.35.13.37.32.76.57,1.17.25.42.56.75.93,1,.37.25.83.46,1.38.63.55.17,1.18.26,1.88.26,1.81,0,3.29-.18,4.44-.54v-2.98h-1.07v.05h-1.76c-.13,0-.36,0-.7.02-.33.02-.61.02-.82.02l-.88-.98v-6.74c0-.42.29-.88.88-1.37h1.76c1.22,0,2.7.02,4.44.05,1.74.03,3.08.05,4,.05h1.95c.94,0,1.68,0,2.21.02.53.02,1.12.09,1.77.23.65.14,1.08.35,1.29.62,0,2.13-.05,5.24-.15,9.33-.1,4.09-.15,7.05-.15,8.89,0,.05,0,.13.02.23.02.11.02.19.02.26v.54c-.55.65-2.36,1.22-5.42,1.71-3.06.49-5.63.73-7.71.73h-.63c-.46,0-1.13.03-2.03.1-.9.06-1.57.1-2.03.1-6.56,0-11.58-1.75-15.05-5.26-3.48-3.51-5.21-8.33-5.21-14.46Z"/>
      <path class="cls-1" d="M619.56,37.84c1.01-3.73,2.12-7.51,3.34-11.35,1.22-3.84,2.74-8.43,4.55-13.78,1.81-5.35,3.05-9.05,3.72-11.1.2-.33.33-.52.39-.59h4.1c.96,0,2.38-.02,4.25-.05,1.87-.03,3.29-.05,4.25-.05h4.1c.24,0,.45,0,.61.01.16,0,.36.03.59.06.23.03.41.08.55.15.14.07.26.16.35.29.1.13.15.29.15.46l11.25,35.67c0,.33-.12.55-.35.67-.24.12-.68.18-1.33.18h-2.25c-.65,0-1.62,0-2.91.02-1.29.02-2.25.02-2.91.02-.2,0-.59.01-1.18.04-.59.02-1.1.03-1.5.02-.41,0-.86-.03-1.36-.07-.5-.04-.89-.13-1.2-.27-.3-.14-.49-.32-.57-.55v-1.61c-.16-.81-.45-1.56-.85-2.25-.41-.68-.84-1.03-1.29-1.03h-8.4l-1.27,5.18c-.18.39-1.09.59-2.73.59h-1.95c-.7,0-1.74.02-3.12.07-1.38.05-2.43.07-3.12.07h-.68c-.26,0-.67,0-1.23.02-.56.02-1,.02-1.31.02-.13-.13-.36-.42-.68-.88ZM636.5,23.02l.68,1.15h1.61c1.3,0,2.49-.08,3.58-.23,1.08-.15,1.62-.4,1.62-.74l-3.15-14.06c-.29,0-.69.55-1.18,1.66-.5,1.11-.9,2.36-1.21,3.76l-1.95,8.47Z"/>
      <path class="cls-1" d="M661.06,37.45v-.78c0-1.4.02-3.05.07-4.96s.11-2.86.17-2.86c.02.02.25-.27.71-.85.46-.59,1.31-1.65,2.55-3.2,1.24-1.55,2.53-3.14,3.87-4.79l7.13-8.69c-1.48,0-3.66.02-6.54.07s-5.06.07-6.54.07c-.24-.06-.4-.19-.48-.38-.07-.19-.11-.45-.11-.79v-2.93c0-.16-.03-.75-.1-1.76-.07-1.01-.1-1.79-.1-2.34,0-1.3.16-1.95.49-1.95,5.53,0,13.61-.06,24.22-.2h5.18c.94,0,1.52.08,1.73.24.21.16.32.7.32,1.61,0,.23-.02.52-.05.87-.03.35-.05.55-.05.6v.15c0,1.42-.09,2.68-.26,3.8-.17,1.12-.37,2.03-.59,2.76-.22.72-.59,1.48-1.1,2.26-.51.78-.96,1.4-1.35,1.84-.39.45-1,1.12-1.83,2.03-.83.9-1.51,1.67-2.05,2.31l-7.08,8.4h14.06c.18,0,.33.13.44.38.11.25.2.65.24,1.18s.08,1,.09,1.38c0,.38.01.93.01,1.65v2.25c0,.15.02.44.05.87.03.43.05.76.05.99,0,.75-.13,1.23-.39,1.44-.26.21-.75.32-1.46.32h-.59c-3.19,0-7.95.05-14.27.15-6.32.1-11.07.15-14.25.15-.55,0-.95-.07-1.2-.22s-.58-.5-1-1.05Z"/>
      <path class="cls-1" d="M696.75,38.48c.06-4.74.18-8.2.34-10.4,0-6.84.1-13.77.29-20.8-.07-1.37-.1-2.38-.1-3.03v-.73c-.07-.72-.1-1.3-.1-1.76,0-.31.15-.59.44-.83,2.67.2,6.74.29,12.21.29,1.3,0,2.2-.03,2.69-.1v37.35h-15.77Z"/>
      <path class="cls-1" d="M717.26,37.94v-11.04c-.03-4.04.1-11.73.39-23.1V1.81c0-.36.06-.57.2-.63h16.8c.16,0,.49.62.99,1.86.5,1.24,1.1,2.83,1.81,4.77.71,1.95,1.21,3.28,1.5,4.02l3.42,8.94v-9.47c0-.81.02-2.31.06-4.48.04-2.17.05-3.87.04-5.09,0-.46,1.3-.68,3.91-.68.81,0,1.93.02,3.34.05,1.42.03,2.29.05,2.61.05h1.86c.26,0,.39.05.39.15.1,4.52.15,11,.15,19.43v16.94c-.11.42-.63.63-1.56.63h-.63c-.85,0-2.09.02-3.74.05-1.64.03-2.89.05-3.74.05h-7.18c-.23-.08-.7-1.11-1.42-3.08-.77-2.13-1.9-5.22-3.42-9.25-1.51-4.04-2.36-6.29-2.54-6.76,0,.96,0,2.39-.02,4.3-.02,1.9-.02,3.34-.02,4.3,0,.72.02,1.79.05,3.22.03,1.43.05,2.51.05,3.22v3.08c0,.75-.33,1.12-.98,1.12h-11.23l-1.07-.59Z"/>
      <path class="cls-1" d="M759.69,36.96v-.93c0-2.78.03-6.89.1-12.33.06-5.44.1-9.55.1-12.33V1.27h28.42v8.76c0,.07,0,.18-.02.35-.02.17-.04.29-.08.35-.04.07-.1.16-.17.28-.07.12-.16.21-.26.26s-.23.09-.39.13c-.16.04-.34.06-.54.06h-.68c-4.22,0-8.06-.06-11.52-.2-.03.26-.09.66-.16,1.21-.07.55-.13,1.03-.17,1.44-.04.42-.06.82-.06,1.21h11.62c.49,0,.81.07.98.2.16.13.24.34.24.63,0,.08,0,.21-.02.39-.02.18-.02.31-.02.39,0,.78.02,1.94.07,3.47.05,1.53.07,2.69.07,3.47-.05.33-.18.49-.39.49-.1,0-.18-.03-.24-.1-5.14.26-8.95.39-11.43.39h-.63v3.52c1.45,0,3.54-.06,6.29-.2,2.74-.13,4.8-.2,6.16-.2,1.07,0,1.69.23,1.86.68v1.86c0,.78.02,1.94.05,3.47.03,1.53.05,2.69.05,3.47s-.33,1.22-.98,1.22c-.85,0-2.15,0-3.91-.02-1.76-.02-3.09-.02-4-.02-2.34,0-5.7.06-10.06.18-4.36.12-7.52.19-9.47.21l-.68-.78c-.07-.46-.1-.75-.1-.88Z"/>
    </g>
  </g>
</svg>